<?xml version="1.0" encoding="UTF-8"?>
<svg id="_圖層_1" data-name="圖層 1" xmlns="http://www.w3.org/2000/svg" viewBox="0 0 226.79 144.05">
  <defs>
    <style>
      .cls-1 {
        fill: #1F4172;
        stroke-width: 0px;
      }
    </style>
  </defs>
  <path class="cls-1" d="m226.77,49.99c-.41.7-.9,1.36-1.23,2.1-6.01,13.57-18.09,18.47-32.09,13.19-6.29-2.37-9.36-7.22-9.51-13.39-.39-16.15-.16-32.32-.29-48.48-.03-3.62,2.25-3.41,4.66-3.41,12.82.01,25.64,0,38.46,0v49.99Z"/>
  <path class="cls-1" d="m0,0c12.79,0,25.59.13,38.38-.07,3.79-.06,4.84,1.26,4.79,4.89-.17,13.13.02,26.27-.09,39.41-.1,11.99-7.09,20.68-17.84,22.52-11.31,1.94-20.2-3.66-24.54-15.45C.53,50.84.24,50.42,0,49.99c0-16.66,0-33.32,0-49.99Z"/>
  <path class="cls-1" d="m52.95,71.47c0-22.15.08-44.31-.08-66.46-.03-3.91,1.12-5.1,5.06-5.08,36.95.13,73.9.13,110.85,0,3.84-.01,5.13,1,5.12,5.02-.13,44.64-.12,89.28-.02,133.92,0,3.76-.86,5.25-4.96,5.18-14.48-.24-28.96-.21-43.44-.02-3.76.05-4.89-1.2-4.83-4.87.19-10.99-.05-21.99.12-32.98.05-3.64-1.15-5.04-4.87-4.99-11.64.16-9.74-.57-9.84,9.42-.1,9.33-.19,18.66.05,27.98.11,4.04-1.01,5.52-5.28,5.45-14.31-.24-28.63-.23-42.94,0-4,.06-5.06-1.25-5.03-5.12.16-22.49.08-44.97.08-67.46Z"/>
</svg>