<svg width="55" height="55" viewBox="0 0 55 55" fill="none" xmlns="http://www.w3.org/2000/svg">
<g id="facebook-square" clip-path="url(#clip0_555_53)">
<path id="Color Vector" d="M1.49866 7.50763C0 10.4489 0 14.2993 0 22V33C0 40.7007 0 44.5511 1.49866 47.4924C2.81692 50.0796 4.9204 52.1831 7.50763 53.5013C10.4489 55 14.2993 55 22 55H27.2645V34.1508H19.4652V25.3698H27.2645V18.6772C27.2645 11.0638 31.8504 6.85843 38.8669 6.85843C42.2276 6.85843 45.743 7.45174 45.743 7.45174V14.9275H41.8696C38.0536 14.9275 36.8637 17.269 36.8637 19.6714V25.3698H45.383L44.0211 34.1508H36.8637V54.9908C42.0814 54.9497 45.0901 54.7254 47.4924 53.5013C50.0796 52.1831 52.1831 50.0796 53.5013 47.4924C55 44.5511 55 40.7007 55 33V22C55 14.2993 55 10.4489 53.5013 7.50763C52.1831 4.9204 50.0796 2.81692 47.4924 1.49866C44.5511 0 40.7007 0 33 0H22C14.2993 0 10.4489 0 7.50763 1.49866C4.9204 2.81692 2.81692 4.9204 1.49866 7.50763Z" fill="#1877F2"/>
</g>
<defs>
<clipPath id="clip0_555_53">
<rect width="55" height="55" fill="white"/>
</clipPath>
</defs>
</svg>
