<?xml version="1.0" encoding="UTF-8"?>
<svg id="_圖層_1" data-name="圖層 1" xmlns="http://www.w3.org/2000/svg" viewBox="0 0 120.97 144.11">
  <defs>
    <style>
      .cls-1 {
        fill: #132043;
        stroke-width: 0px;
      }
    </style>
  </defs>
  <path class="cls-1" d="m67.97,64.89c0-18.97-.02-37.94.01-56.91.01-7.3.66-7.92,8.05-7.94,12.64-.03,25.28-.05,37.92.02,6.11.03,6.98.87,6.98,6.96.04,35.78,0,71.56.02,107.34,0,4.4-.92,8.62-2.65,12.62-7.91,18.36-24.25,20.67-40.44,14.12-8.04-3.25-9.83-11.22-9.86-19.28-.06-18.97-.02-37.94-.02-56.91h-.02Z"/>
  <path class="cls-1" d="m53.07,62.75c0,17.49-.03,34.99.03,52.48.02,4.58-.73,8.92-2.59,13.11-5.33,12.02-15.25,17.35-28.81,15.36-11.76-1.73-19.76-10.12-21.32-22.49-.27-2.14-.28-4.32-.28-6.48-.02-35.32-.02-70.64,0-105.96C.09.4.46.03,8.83.02,21.32,0,33.81-.03,46.3.05c5.81.04,6.73.93,6.75,6.72.06,18.66.02,37.32.03,55.98Z"/>
</svg>