<svg width="227" height="567" viewBox="0 0 227 567" fill="none" xmlns="http://www.w3.org/2000/svg">
<mask id="mask0_193_42" style="mask-type:alpha" maskUnits="userSpaceOnUse" x="-1" y="0" width="229" height="567">
<circle cx="113.5" cy="62.8149" r="62.8149" fill="black"/>
<path d="M227 186.712C227 157.774 199.852 147.507 186.279 145.99H40.7214C9.53053 145.99 0.577608 173.138 0 186.712V323.172C0.288804 330.32 4.98187 344.615 21.4437 344.615C37.9055 344.615 42.5986 330.32 42.8874 323.172V209.022H53.501V539.991C53.501 560.612 70.9736 566.056 79.7099 566.2C98.9443 566.2 105.197 548.728 105.919 539.991V379.055H121.081V539.991C121.081 555.154 124.547 566.2 147.29 566.2C165.485 566.2 172.344 548.728 173.499 539.991V209.022H184.113V323.172C184.113 335.951 186.279 344.615 205.556 344.615C220.978 344.615 226.278 330.32 227 323.172V186.712Z" fill="black"/>
<path d="M34.6565 145.99H40.7214M40.7214 145.99H186.279C199.852 147.507 227 157.774 227 186.712V323.172C226.278 330.32 220.978 344.615 205.556 344.615C186.279 344.615 184.113 335.951 184.113 323.172V209.022H173.499V539.991C172.344 548.728 165.485 566.2 147.29 566.2C124.547 566.2 121.081 555.154 121.081 539.991V379.055H105.919V539.991C105.197 548.728 98.9443 566.2 79.7099 566.2C70.9736 566.056 53.501 560.612 53.501 539.991V209.022H42.8874V323.172C42.5986 330.32 37.9055 344.615 21.4437 344.615C4.98187 344.615 0.288804 330.32 0 323.172V186.712C0.577608 173.138 9.53053 145.99 40.7214 145.99Z" stroke="black"/>
</mask>
<g mask="url(#mask0_193_42)">
<rect x="51" y="422" width="125" height="144" fill="#4B0808"/>
</g>
<mask id="mask1_193_42" style="mask-type:alpha" maskUnits="userSpaceOnUse" x="-1" y="0" width="229" height="567">
<circle cx="113.5" cy="62.8149" r="62.8149" fill="black"/>
<path d="M227 186.712C227 157.774 199.852 147.507 186.279 145.99H40.7214C9.53053 145.99 0.577608 173.138 0 186.712V323.172C0.288804 330.32 4.98187 344.615 21.4437 344.615C37.9055 344.615 42.5986 330.32 42.8874 323.172V209.022H53.501V539.991C53.501 560.612 70.9736 566.056 79.7099 566.2C98.9443 566.2 105.197 548.728 105.919 539.991V379.055H121.081V539.991C121.081 555.154 124.547 566.2 147.29 566.2C165.485 566.2 172.344 548.728 173.499 539.991V209.022H184.113V323.172C184.113 335.951 186.279 344.615 205.556 344.615C220.978 344.615 226.278 330.32 227 323.172V186.712Z" fill="black"/>
<path d="M34.6565 145.99H40.7214M40.7214 145.99H186.279C199.852 147.507 227 157.774 227 186.712V323.172C226.278 330.32 220.978 344.615 205.556 344.615C186.279 344.615 184.113 335.951 184.113 323.172V209.022H173.499V539.991C172.344 548.728 165.485 566.2 147.29 566.2C124.547 566.2 121.081 555.154 121.081 539.991V379.055H105.919V539.991C105.197 548.728 98.9443 566.2 79.7099 566.2C70.9736 566.056 53.501 560.612 53.501 539.991V209.022H42.8874V323.172C42.5986 330.32 37.9055 344.615 21.4437 344.615C4.98187 344.615 0.288804 330.32 0 323.172V186.712C0.577608 173.138 9.53053 145.99 40.7214 145.99Z" stroke="black"/>
</mask>
<g mask="url(#mask1_193_42)">
<rect y="278" width="227" height="144" fill="#B32B2B"/>
</g>
<mask id="mask2_193_42" style="mask-type:alpha" maskUnits="userSpaceOnUse" x="-1" y="0" width="229" height="567">
<circle cx="113.5" cy="62.8149" r="62.8149" fill="black"/>
<path d="M227 186.712C227 157.774 199.852 147.507 186.279 145.99H40.7214C9.53053 145.99 0.577608 173.138 0 186.712V323.172C0.288804 330.32 4.98187 344.615 21.4437 344.615C37.9055 344.615 42.5986 330.32 42.8874 323.172V209.022H53.501V539.991C53.501 560.612 70.9736 566.056 79.7099 566.2C98.9443 566.2 105.197 548.728 105.919 539.991V379.055H121.081V539.991C121.081 555.154 124.547 566.2 147.29 566.2C165.485 566.2 172.344 548.728 173.499 539.991V209.022H184.113V323.172C184.113 335.951 186.279 344.615 205.556 344.615C220.978 344.615 226.278 330.32 227 323.172V186.712Z" fill="black"/>
<path d="M34.6565 145.99H40.7214M40.7214 145.99H186.279C199.852 147.507 227 157.774 227 186.712V323.172C226.278 330.32 220.978 344.615 205.556 344.615C186.279 344.615 184.113 335.951 184.113 323.172V209.022H173.499V539.991C172.344 548.728 165.485 566.2 147.29 566.2C124.547 566.2 121.081 555.154 121.081 539.991V379.055H105.919V539.991C105.197 548.728 98.9443 566.2 79.7099 566.2C70.9736 566.056 53.501 560.612 53.501 539.991V209.022H42.8874V323.172C42.5986 330.32 37.9055 344.615 21.4437 344.615C4.98187 344.615 0.288804 330.32 0 323.172V186.712C0.577608 173.138 9.53053 145.99 40.7214 145.99Z" stroke="black"/>
</mask>
<g mask="url(#mask2_193_42)">
<rect y="135" width="227" height="144" fill="#FC7F7F"/>
</g>
<mask id="mask3_193_42" style="mask-type:alpha" maskUnits="userSpaceOnUse" x="-1" y="0" width="229" height="567">
<circle cx="113.5" cy="62.8149" r="62.8149" fill="black"/>
<path d="M227 186.712C227 157.774 199.852 147.507 186.279 145.99H40.7214C9.53053 145.99 0.577608 173.138 0 186.712V323.172C0.288804 330.32 4.98187 344.615 21.4437 344.615C37.9055 344.615 42.5986 330.32 42.8874 323.172V209.022H53.501V539.991C53.501 560.612 70.9736 566.056 79.7099 566.2C98.9443 566.2 105.197 548.728 105.919 539.991V379.055H121.081V539.991C121.081 555.154 124.547 566.2 147.29 566.2C165.485 566.2 172.344 548.728 173.499 539.991V209.022H184.113V323.172C184.113 335.951 186.279 344.615 205.556 344.615C220.978 344.615 226.278 330.32 227 323.172V186.712Z" fill="black"/>
<path d="M34.6565 145.99H40.7214M40.7214 145.99H186.279C199.852 147.507 227 157.774 227 186.712V323.172C226.278 330.32 220.978 344.615 205.556 344.615C186.279 344.615 184.113 335.951 184.113 323.172V209.022H173.499V539.991C172.344 548.728 165.485 566.2 147.29 566.2C124.547 566.2 121.081 555.154 121.081 539.991V379.055H105.919V539.991C105.197 548.728 98.9443 566.2 79.7099 566.2C70.9736 566.056 53.501 560.612 53.501 539.991V209.022H42.8874V323.172C42.5986 330.32 37.9055 344.615 21.4437 344.615C4.98187 344.615 0.288804 330.32 0 323.172V186.712C0.577608 173.138 9.53053 145.99 40.7214 145.99Z" stroke="black"/>
</mask>
<g mask="url(#mask3_193_42)">
<rect x="51" y="-9" width="125" height="144" fill="#FF4545"/>
</g>
</svg>
