<svg width="55" height="55" viewBox="0 0 55 55" fill="none" xmlns="http://www.w3.org/2000/svg">
<g id="instagram-square" clip-path="url(#clip0_555_55)">
<g id="Color Vector">
<path d="M34.1675 27.5C34.1675 23.8179 31.1826 20.8333 27.501 20.8333C23.819 20.8333 20.8345 23.8179 20.8345 27.5C20.8345 31.1817 23.819 34.1667 27.501 34.1667C31.1826 34.1667 34.1675 31.1817 34.1675 27.5Z" fill="url(#paint0_linear_555_55)"/>
<path fill-rule="evenodd" clip-rule="evenodd" d="M26.8344 11.104C26.43 11.1038 26.0553 11.1036 25.7069 11.1042V11.0992C21.9795 11.1033 21.2645 11.1283 19.4196 11.2117C17.4696 11.3013 16.4109 11.6263 15.706 11.9012C14.7726 12.2646 14.106 12.6979 13.406 13.3979C12.706 14.0979 12.2719 14.7646 11.9094 15.6979C11.6357 16.4029 11.3098 17.4613 11.2207 19.4113C11.1248 21.5196 11.1057 22.1496 11.1057 27.4904C11.1057 32.8312 11.1248 33.4646 11.2207 35.5729C11.3094 37.5229 11.6357 38.5812 11.9094 39.2854C12.2727 40.2192 12.706 40.8842 13.406 41.5842C14.106 42.2842 14.7726 42.7175 15.706 43.08C16.4113 43.3537 17.4696 43.6796 19.4196 43.7696C21.5279 43.8654 22.1608 43.8862 27.501 43.8862C32.8408 43.8862 33.4742 43.8654 35.5824 43.7696C37.5324 43.6804 38.5915 43.3554 39.2957 43.0804C40.2294 42.7179 40.8939 42.2846 41.5939 41.5846C42.2939 40.885 42.7281 40.2204 43.0905 39.2871C43.3643 38.5829 43.6901 37.5246 43.7793 35.5746C43.8751 33.4662 43.8959 32.8329 43.8959 27.4954C43.8959 22.1579 43.8751 21.5246 43.7793 19.4162C43.6905 17.4662 43.3643 16.4079 43.0905 15.7038C42.7272 14.7704 42.2939 14.1037 41.5939 13.4038C40.8944 12.7037 40.229 12.2704 39.2957 11.9079C38.5907 11.6342 37.5324 11.3083 35.5824 11.2192C33.4737 11.1233 32.8408 11.1042 27.501 11.1042C27.2702 11.1042 27.0482 11.1041 26.8344 11.104ZM35.7766 16.8242C35.7766 15.4987 36.8516 14.425 38.1765 14.425C39.5015 14.425 40.5764 15.4992 40.5764 16.8242C40.5764 18.1492 39.5015 19.2242 38.1765 19.2242C36.8516 19.2242 35.7766 18.1492 35.7766 16.8242ZM17.2305 27.5C17.2305 21.8279 21.8291 17.2292 27.501 17.2292C33.1729 17.2292 37.7699 21.8279 37.7699 27.5C37.7699 33.1721 33.1729 37.7687 27.501 37.7687C21.8291 37.7687 17.2305 33.1721 17.2305 27.5Z" fill="url(#paint1_linear_555_55)"/>
<path fill-rule="evenodd" clip-rule="evenodd" d="M1.49866 7.50786C0 10.4492 0 14.2997 0 22.0007V33.001C0 40.702 0 44.5524 1.49866 47.4938C2.81692 50.0811 4.9204 52.1847 7.50763 53.503C10.4489 55.0017 14.2993 55.0017 22 55.0017H33C40.7007 55.0017 44.5511 55.0017 47.4924 53.503C50.0796 52.1847 52.1831 50.0811 53.5013 47.4938C55 44.5524 55 40.702 55 33.001V22.0007C55 14.2997 55 10.4492 53.5013 7.50786C52.1831 4.92055 50.0796 2.817 47.4924 1.49871C44.5511 0 40.7007 0 33 0H22C14.2993 0 10.4489 0 7.50763 1.49871C4.9204 2.817 2.81692 4.92055 1.49866 7.50786ZM19.2546 7.62083C21.3879 7.52375 22.0695 7.5 27.501 7.5H27.4948C32.9279 7.5 33.6071 7.52375 35.7403 7.62083C37.8694 7.71833 39.3236 8.05542 40.5985 8.55C41.9152 9.06042 43.0276 9.74375 44.1401 10.8562C45.2526 11.9679 45.9359 13.0837 46.4484 14.3992C46.94 15.6708 47.2775 17.1242 47.3775 19.2533C47.4733 21.3867 47.4983 22.0683 47.4983 27.5C47.4983 32.9317 47.4733 33.6117 47.3775 35.745C47.2775 37.8733 46.94 39.3271 46.4484 40.5992C45.9359 41.9142 45.2526 43.03 44.1401 44.1417C43.0289 45.2542 41.9147 45.9392 40.5998 46.45C39.3273 46.9446 37.8724 47.2817 35.7433 47.3792C33.61 47.4762 32.9304 47.5 27.4985 47.5C22.0674 47.5 21.3862 47.4762 19.2529 47.3792C17.1242 47.2817 15.6705 46.9446 14.3981 46.45C13.0835 45.9392 11.9677 45.2542 10.8565 44.1417C9.74446 43.03 9.06115 41.9142 8.54992 40.5987C8.05577 39.3271 7.71869 37.8737 7.62078 35.7446C7.52412 33.6112 7.49995 32.9317 7.49995 27.5C7.49995 22.0683 7.52495 21.3862 7.62036 19.2529C7.71619 17.1246 8.05368 15.6708 8.5495 14.3987C9.06199 13.0837 9.7453 11.9679 10.8578 10.8562C11.9694 9.74417 13.0852 9.06083 14.4006 8.55C15.6722 8.05542 17.1255 7.71833 19.2546 7.62083Z" fill="url(#paint2_linear_555_55)"/>
</g>
</g>
<defs>
<linearGradient id="paint0_linear_555_55" x1="32.3137" y1="-2.91428" x2="16.2405" y2="50.1859" gradientUnits="userSpaceOnUse">
<stop stop-color="#515BD4"/>
<stop offset="0.26" stop-color="#9510B8"/>
<stop offset="0.66" stop-color="#E51804"/>
<stop offset="1" stop-color="#FFBF00"/>
</linearGradient>
<linearGradient id="paint1_linear_555_55" x1="32.3137" y1="-2.91428" x2="16.2405" y2="50.1859" gradientUnits="userSpaceOnUse">
<stop stop-color="#515BD4"/>
<stop offset="0.26" stop-color="#9510B8"/>
<stop offset="0.66" stop-color="#E51804"/>
<stop offset="1" stop-color="#FFBF00"/>
</linearGradient>
<linearGradient id="paint2_linear_555_55" x1="32.3137" y1="-2.91428" x2="16.2405" y2="50.1859" gradientUnits="userSpaceOnUse">
<stop stop-color="#515BD4"/>
<stop offset="0.26" stop-color="#9510B8"/>
<stop offset="0.66" stop-color="#E51804"/>
<stop offset="1" stop-color="#FFBF00"/>
</linearGradient>
<clipPath id="clip0_555_55">
<rect width="55" height="55" fill="white"/>
</clipPath>
</defs>
</svg>
