<svg width="97" height="97" viewBox="0 0 97 97" fill="none" xmlns="http://www.w3.org/2000/svg">
<g id="Huge-icon">
<path id="Subtract" fill-rule="evenodd" clip-rule="evenodd" d="M48.5006 88.9168C70.8222 88.9168 88.9173 70.8217 88.9173 48.5002C88.9173 26.1787 70.8222 8.0835 48.5006 8.0835C26.1791 8.0835 8.08398 26.1787 8.08398 48.5002C8.08398 70.8217 26.1791 88.9168 48.5006 88.9168ZM67.0601 38.2363C68.0879 36.9148 67.8498 35.0104 66.5284 33.9826C65.2069 32.9548 63.3024 33.1928 62.2746 34.5143L46.0797 55.3364C45.7195 55.7994 45.0421 55.8595 44.6061 55.4671L34.3618 46.2472C33.1175 45.1273 31.2008 45.2281 30.0809 46.4725C28.961 47.7169 29.0619 49.6335 30.3062 50.7534L40.5505 59.9733C43.6025 62.7201 48.3443 62.2995 50.8651 59.0584L67.0601 38.2363Z" fill="#28303F"/>
</g>
</svg>
