<?xml version="1.0" encoding="UTF-8"?>
<svg id="_圖層_1" data-name="圖層 1" xmlns="http://www.w3.org/2000/svg" viewBox="0 0 30.6 27.02">
  <defs>
    <style>
      .cls-1 {
        stroke-width: 0px;
      }
    </style>
  </defs>
  <path class="cls-1" d="M27.92,25.43c-.19.4-.47.66-.95.64-.28-.01-.48-.16-.67-.35-1.72-1.72-3.45-3.45-5.17-5.17-.33-.32-.22-.32-.59-.04-1.92,1.45-4.09,2.1-6.47,1.94-2.23-.15-4.19-1.01-5.83-2.53-1.63-1.51-2.65-3.36-2.98-5.55-.39-2.6.16-4.99,1.72-7.13,1.44-1.98,3.37-3.24,5.76-3.77.37-.08.76-.13,1.14-.19h1.73c.55.08,1.1.16,1.63.31,2.18.61,3.94,1.82,5.26,3.65,1.55,2.14,2.11,4.52,1.72,7.13-.25,1.64-.9,3.11-1.92,4.41-.13.16-.12.25.02.4,1.72,1.71,3.44,3.43,5.16,5.15.17.17.34.35.45.58v.53ZM6.95,12.87c.04,4.32,3.45,7.78,7.78,7.78,4.32,0,7.78-3.43,7.79-7.77,0-4.34-3.45-7.79-7.78-7.79-4.33,0-7.74,3.45-7.79,7.78Z"/>
</svg>