<svg width="1219" height="1953" viewBox="0 0 1219 1953" fill="none" xmlns="http://www.w3.org/2000/svg">
<path d="M-5.19385 579.157C-61.8662 420.892 61.4432 298.541 130.182 257.148L607.154 746.67L176.386 736.67L563.505 989.14L51.3754 1090.4L38.1448 1018.31C-175.125 803 -79.6101 635.829 -5.19385 579.157Z" fill="#704300" fill-opacity="0.3"/>
<path d="M253.943 114.478C199.271 121.604 154.246 177.002 138.568 203.81L618.717 680.935L385.725 84.8397C330.387 36.8355 274.813 84.5969 253.943 114.478Z" fill="#704300" fill-opacity="0.3"/>
<path d="M791.7 88.4846C636.06 -46.5272 478.702 3.85978 419.478 45.9298L572.671 489.459L848.215 84.4735L791.7 88.4846Z" fill="#704300" fill-opacity="0.3"/>
<path d="M889.157 89.6823L676.795 413.098L1146.63 744.897C1234.55 657.514 1223.55 475.723 1207.05 395.751L1133.55 331.995L1148.56 314.702C1115.84 219.652 961.993 125.085 889.157 89.6823Z" fill="#704300" fill-opacity="0.3"/>
<path d="M643.042 452.008L596.579 540.505L661.065 763.13L804.568 955.803C1007.75 1029.02 1129.94 871.853 1165.64 784.119L643.042 452.008Z" fill="#704300" fill-opacity="0.3"/>
<path d="M646.064 780.423L288.531 773.34L621.166 1001.28L116.225 1146.66C168.105 1191.66 344.458 1218.36 426.149 1226.09C650.128 1226.42 727.34 1068.12 737.948 988.931C744.657 946.26 679.487 832.146 646.064 780.423Z" fill="#704300" fill-opacity="0.3"/>
<path d="M848.215 1907C936.429 1616.6 824.695 1161.33 757.801 970C742.767 927 785.013 966 795.801 988.931C949.902 1316.5 950.777 1743.45 920.8 1927C861.201 1981.8 847.577 1936.5 848.215 1907Z" fill="#704300" fill-opacity="0.3"/>
</svg>
