<svg width="55" height="55" viewBox="0 0 55 55" fill="none" xmlns="http://www.w3.org/2000/svg">
<g id="youtube-square" clip-path="url(#clip0_555_57)">
<g id="Color Vector">
<path d="M23.2815 22.1477L34.0627 28.2813L23.2815 34.4149V22.1477Z" fill="#FF0302"/>
<path fill-rule="evenodd" clip-rule="evenodd" d="M1.49866 7.50763C0 10.4489 0 14.2993 0 22V33C0 40.7007 0 44.5511 1.49866 47.4924C2.81692 50.0796 4.9204 52.1831 7.50763 53.5013C10.4489 55 14.2993 55 22 55H33C40.7007 55 44.5511 55 47.4924 53.5013C50.0796 52.1831 52.1831 50.0796 53.5013 47.4924C55 44.5511 55 40.7007 55 33V22C55 14.2993 55 10.4489 53.5013 7.50763C52.1831 4.9204 50.0796 2.81692 47.4924 1.49866C44.5511 0 40.7007 0 33 0H22C14.2993 0 10.4489 0 7.50763 1.49866C4.9204 2.81692 2.81692 4.9204 1.49866 7.50763ZM47.2625 18.2875C47.0293 17.4099 46.5697 16.609 45.9297 15.9649C45.2896 15.3208 44.4917 14.856 43.6156 14.6172C40.3906 13.75 27.5 13.75 27.5 13.75C27.5 13.75 14.6094 13.75 11.3844 14.6172C10.5083 14.856 9.71035 15.3208 9.07034 15.9649C8.43032 16.609 7.97071 17.4099 7.7375 18.2875C6.875 21.5266 6.875 28.2813 6.875 28.2813C6.875 28.2813 6.875 35.0359 7.7375 38.275C7.97071 39.1526 8.43032 39.9535 9.07034 40.5976C9.71035 41.2417 10.5083 41.7065 11.3844 41.9453C14.6094 42.8125 27.5 42.8125 27.5 42.8125C27.5 42.8125 40.3906 42.8125 43.6156 41.9453C44.4917 41.7065 45.2896 41.2417 45.9297 40.5976C46.5697 39.9535 47.0293 39.1526 47.2625 38.275C48.125 35.0359 48.125 28.2813 48.125 28.2813C48.125 28.2813 48.125 21.5266 47.2625 18.2875Z" fill="#FF0302"/>
</g>
</g>
<defs>
<clipPath id="clip0_555_57">
<rect width="55" height="55" fill="white"/>
</clipPath>
</defs>
</svg>
