<svg width="94" height="91" viewBox="0 0 94 91" fill="none" xmlns="http://www.w3.org/2000/svg">
<path d="M60.92 1.16799H71.384V76.72H60.92V1.16799ZM42.68 20.944H92.408V29.296H42.68V20.944ZM45.368 59.632H90.584V67.984H45.368V59.632ZM47.768 46.576H88.184V54.928H47.768V46.576ZM24.92 8.17599H38.264V17.392H24.92V8.17599ZM29.816 34.576H40.376V42.928H29.816V34.576ZM35.672 8.17599H37.016L38.648 7.79199L45.848 9.616C41.912 20.56 35.768 35.248 30.68 46.864L21.272 44.656C26.456 33.136 32.696 17.488 35.672 9.328V8.17599ZM37.592 34.576H39.416L41.24 34.384L47.288 35.344C45.368 62.416 39.224 80.368 26.264 90.448C24.92 87.952 22.04 83.92 19.928 81.904C30.392 74.512 36.152 57.424 37.592 36.208V34.576ZM30.392 48.88C35.576 74.128 47.864 79.12 66.008 79.216C70.424 79.216 87.704 79.216 93.176 78.928C91.64 81.424 90.104 86.32 89.528 89.296H65.432C42.488 89.296 28.664 82.672 21.752 51.376L30.392 48.88ZM48.92 8.272H87.608V42.064H48.92V33.712H77.912V16.624H48.92V8.272ZM17.24 0.783998L27.512 3.856C22.52 19.792 14.264 37.072 5.144 48.112C4.376 45.424 1.688 38.704 0.0560001 35.728C7.16 27.088 13.496 14.032 17.24 0.783998ZM10.712 28.528L20.6 18.64L20.792 18.832V90.544H10.712V28.528Z" fill="white"/>
</svg>
