<svg width="85" height="86" viewBox="0 0 85 86" fill="none" xmlns="http://www.w3.org/2000/svg">
<path d="M18.16 0.927994H77.104V11.872H18.16V0.927994ZM18.16 23.008H77.296V33.76H18.16V23.008ZM17.968 45.664H77.68V56.512H17.968V45.664ZM11.536 0.927994H22.96V35.488C22.96 50.752 21.04 72.352 9.232 85.216C7.408 83.008 2.704 79.168 0.208 77.728C10.672 66.112 11.536 48.928 11.536 35.392V0.927994ZM73.072 0.927994H84.496V71.104C84.496 77.248 83.152 80.32 79.312 82.144C75.28 83.968 69.52 84.16 60.784 84.064C60.304 80.992 58.576 76 57.04 73.024C62.512 73.408 68.848 73.312 70.576 73.312C72.4 73.216 73.072 72.64 73.072 71.008V0.927994ZM41.104 5.248H52.816V83.488H41.104V5.248Z" fill="white"/>
</svg>
