<svg width="92" height="91" viewBox="0 0 92 91" fill="none" xmlns="http://www.w3.org/2000/svg">
<path d="M45.616 10.288C37.36 19.888 22.096 30.448 6.832 36.976C5.488 34.288 2.512 29.968 0.208 27.568C16.048 21.424 31.6 10.096 39.184 0.207994H50.896C61.648 12.208 77.008 21.712 91.984 26.512C89.296 29.392 86.704 33.424 84.688 36.784C70.864 30.832 54.352 20.176 45.616 10.288ZM24.4 40.816H66.736V49.072H24.4V40.816ZM39.76 19.504H51.664V32.464H39.76V19.504ZM7.312 79.12C18.064 78.352 34.096 77.104 49.168 75.664L49.264 85.936C35.056 87.376 19.888 88.72 8.848 89.776L7.312 79.12ZM48.976 59.824C55.792 71.536 70.096 78.352 90.16 80.656C87.664 83.056 84.688 87.664 83.152 90.736C61.84 87.184 47.728 78.256 39.184 62.512L48.976 59.824ZM77.296 57.904L85.648 64.816C78.16 69.712 68.944 74.8 61.84 77.872L54.928 71.632C62.032 68.272 71.536 62.416 77.296 57.904ZM24.4 26.896H74.416V63.28H24.4V54.352H62.8V35.824H24.4V26.896ZM17.296 26.896H28.72V80.464L17.296 81.712V26.896Z" fill="white"/>
</svg>
